<svg width="106" height="22" fill="none" xmlns="http://www.w3.org/2000/svg"><path d="M14.002.5C6.282.5 0 5.255 0 11.098c0 5.106 4.794 9.379 11.152 10.38.68.118 1.714-.22 1.747-1.39.033-1.19-1.098-1.394-1.227-1.413-2.044-.303-3.926-1.023-5.452-2.086-2.218-1.543-3.439-3.635-3.439-5.89 0-.611.495-1.108 1.103-1.108s1.102.497 1.102 1.108c0 1.506.883 2.954 2.49 4.073 1.727 1.204 4.046 1.866 6.524 1.866 2.478 0 4.798-.663 6.525-1.866 1.606-1.119 2.489-2.565 2.489-4.073 0-.611.494-1.108 1.102-1.108.608 0 1.103.497 1.103 1.108 0 2.255-1.221 4.349-3.439 5.89-1.525 1.063-3.408 1.785-5.452 2.086-.13.019-1.26.224-1.227 1.413.031 1.17 1.068 1.508 1.747 1.39 6.358-1 11.152-5.273 11.152-10.38C28.003 5.255 21.722.5 14.002.5z" fill="#FF3636"/><path fill-rule="evenodd" clip-rule="evenodd" d="M102.339 3.17a1.459 1.459 0 00-.454 1.082c0 .438.148.801.445 1.09.298.29.667.435 1.105.435.428 0 .789-.147 1.08-.442.291-.296.437-.657.437-1.083 0-.426-.146-.787-.437-1.083a1.456 1.456 0 00-1.08-.442c-.429 0-.795.146-1.096.442zm1.096 12.526c.877 0 1.318-.644 1.318-1.937V8.42c0-1.28-.438-1.92-1.318-1.92-.89 0-1.334.64-1.334 1.92v5.339c0 1.29.444 1.937 1.334 1.937zM55.84 8.29c0-1.291.445-1.937 1.335-1.937.879 0 1.318.646 1.318 1.937v5.471c0 1.291-.441 1.938-1.318 1.938-.89 0-1.335-.647-1.335-1.938V8.29zm-7.398 3.548c.057.51.27.9.643 1.172.373.274.83.41 1.367.41.45 0 .994-.144 1.632-.434.637-.29 1.032-.434 1.186-.434.703 0 1.056.344 1.056 1.034 0 .263-.099.524-.297.787-.353.48-.913.846-1.681 1.099a6.31 6.31 0 01-2.027.328c-1.318 0-2.417-.45-3.296-1.352-.88-.901-1.318-2.015-1.318-3.336 0-1.311.42-2.433 1.26-3.36.84-.93 1.915-1.394 3.223-1.394.647 0 1.235.12 1.762.361.759.351 1.38.87 1.863 1.558a3.83 3.83 0 01.726 2.248c0 .438-.16.77-.478 1-.274.209-.637.313-1.088.313h-4.533zm3.477-1.746h-3.51c.088-.47.29-.85.61-1.14.32-.29.714-.434 1.187-.434.461 0 .855.147 1.178.442.324.296.503.673.535 1.132zm-13.3 4.983h.066c.592.514 1.291.77 2.09.773a3.52 3.52 0 001.583-.377c.803-.394 1.423-1.002 1.863-1.822a5.198 5.198 0 00.644-2.557c0-1.246-.353-2.316-1.056-3.214-.768-.962-1.769-1.443-2.998-1.443-.923 0-1.653.3-2.192.901-.317-.557-.742-.836-1.268-.836-.9 0-1.351.64-1.351 1.919v8.92c0 1.29.449 1.935 1.35 1.935.847 0 1.27-.634 1.27-1.903v-2.296zm.414-2.343c-.276-.383-.414-.875-.414-1.477 0-.93.175-1.556.525-1.878a1.776 1.776 0 011.25-.483c.574 0 1.021.24 1.34.722.288.416.431.92.431 1.509 0 .601-.137 1.115-.414 1.542-.322.48-.772.721-1.359.721-.586 0-1.039-.218-1.359-.656zm21.027-1.839c0 .765.439 1.148 1.318 1.148h3.43c.9 0 1.35-.377 1.35-1.131 0-.777-.445-1.165-1.334-1.165h-3.43c-.889 0-1.334.383-1.334 1.148zm7.564 2.868V8.42c0-1.28.435-1.921 1.302-1.921.56 0 1 .28 1.318.836.494-.557 1.203-.836 2.125-.836 1.165 0 2.05.404 2.653 1.213.735-.81 1.631-1.213 2.686-1.213 2.011 0 3.016 1.15 3.016 3.45v3.812c0 1.293-.443 1.937-1.326 1.937-.863 0-1.294-.644-1.294-1.935v-3c0-1.323-.414-1.984-1.244-1.984-.906 0-1.36.65-1.36 1.952v3.034c0 1.29-.438 1.935-1.31 1.935-.874 0-1.31-.644-1.31-1.935v-3c0-1.323-.41-1.984-1.228-1.984-.918 0-1.377.65-1.377 1.951v3.035c0 1.29-.435 1.935-1.302 1.935-.898-.004-1.349-.65-1.349-1.943zm17.108-1.923c.056.51.27.9.642 1.172.374.274.83.41 1.368.41.45 0 .994-.144 1.631-.434.637-.29 1.033-.434 1.187-.434.703 0 1.056.344 1.056 1.034 0 .263-.1.524-.298.787-.353.48-.912.846-1.68 1.099a6.314 6.314 0 01-2.028.328c-1.318 0-2.416-.45-3.296-1.352-.879-.901-1.318-2.015-1.318-3.336 0-1.311.42-2.433 1.26-3.36.841-.93 1.915-1.394 3.223-1.394.648 0 1.236.12 1.763.361.758.351 1.379.87 1.863 1.558a3.83 3.83 0 01.725 2.248c0 .438-.16.77-.477 1-.275.209-.637.313-1.089.313h-4.532zm3.477-1.746h-3.51c.087-.47.29-.85.61-1.14.32-.29.713-.434 1.186-.434.461 0 .855.147 1.179.442.324.296.502.673.535 1.132zm3.822 3.669V8.42c0-1.28.452-1.921 1.351-1.921.527 0 .95.28 1.27.836.503-.557 1.284-.836 2.34-.836 2.164 0 3.246 1.15 3.246 3.45v3.812c0 1.293-.445 1.937-1.334 1.937-.89 0-1.335-.644-1.335-1.935v-3c0-.657-.076-1.12-.229-1.393-.207-.393-.607-.59-1.195-.59-.939 0-1.41.651-1.41 1.952v3.035c0 1.29-.447 1.935-1.342 1.935-.909-.004-1.362-.65-1.362-1.943z" fill="#333"/></svg>