<svg width="44" height="44" fill="none" xmlns="http://www.w3.org/2000/svg"><circle cx="22" cy="22" r="21" fill="#fff" stroke="#40485C" stroke-width="2"/><path d="M21.85 11.44c-7.857 0-14.25 4.783-14.25 10.66 0 5.134 4.879 9.431 11.35 10.438.692.12 1.744-.222 1.778-1.397.034-1.197-1.117-1.403-1.249-1.422-2.08-.304-3.996-1.029-5.548-2.097-2.257-1.552-3.5-3.657-3.5-5.925 0-.614.503-1.113 1.122-1.113.619 0 1.122.5 1.122 1.113 0 1.516.899 2.972 2.533 4.097 1.759 1.21 4.118 1.877 6.64 1.877 2.522 0 4.884-.667 6.64-1.877 1.635-1.125 2.534-2.58 2.534-4.097 0-.614.503-1.113 1.122-1.113.619 0 1.122.5 1.122 1.113 0 2.268-1.243 4.374-3.5 5.925-1.552 1.068-3.468 1.794-5.548 2.097-.132.02-1.283.225-1.25 1.421.033 1.176 1.087 1.517 1.779 1.398 6.47-1.005 11.35-5.302 11.35-10.439.002-5.876-6.39-10.659-14.247-10.659z" fill="#40485C"/></svg>